<svg width="35" height="29" viewBox="0 0 35 29" fill="none" xmlns="http://www.w3.org/2000/svg">
<path d="M34.6483 6.58339L30.492 3.69081C30.2096 3.52704 29.9025 3.40087 29.5802 3.31619C29.2593 3.22237 28.9252 3.17022 28.588 3.16129H16.625L18.0267 11.0645H28.588C28.875 11.0645 29.2338 11.006 29.5785 10.9096C29.9233 10.8132 30.2558 10.6804 30.4902 10.5366L34.6465 7.64084C34.8828 7.497 35 7.30574 35 7.1129C35 6.92006 34.8828 6.72881 34.6483 6.58339ZM14.875 0H13.125C12.8929 0 12.6704 0.0832659 12.5063 0.23148C12.3422 0.379694 12.25 0.580716 12.25 0.790323V6.32258H6.412C6.1215 6.32258 5.7645 6.38106 5.41975 6.47906C5.07325 6.5739 4.7425 6.7051 4.508 6.8521L0.35175 9.74468C0.1155 9.88852 0 10.0814 0 10.2742C0 10.4655 0.1155 10.6567 0.35175 10.8037L4.508 13.6995C4.7425 13.8433 5.07325 13.9761 5.41975 14.0709C5.7645 14.1673 6.1215 14.2258 6.412 14.2258H12.25V27.6613C12.25 27.8709 12.3422 28.0719 12.5063 28.2201C12.6704 28.3683 12.8929 28.4516 13.125 28.4516H14.875C15.1071 28.4516 15.3296 28.3683 15.4937 28.2201C15.6578 28.0719 15.75 27.8709 15.75 27.6613V0.790323C15.75 0.580716 15.6578 0.379694 15.4937 0.23148C15.3296 0.0832659 15.1071 0 14.875 0Z" fill="#A7AFAF"/>
</svg>
