<svg width="29" height="30" viewBox="0 0 29 30" fill="none" xmlns="http://www.w3.org/2000/svg">
<path d="M14.5 0.114014C11.6445 0.114014 8.8532 0.981927 6.47896 2.608C4.10473 4.23407 2.25424 6.54527 1.1615 9.24933C0.0687555 11.9534 -0.217155 14.9289 0.339919 17.7995C0.896993 20.6701 2.27203 23.3069 4.29115 25.3765C6.31027 27.4461 8.88279 28.8555 11.6834 29.4265C14.484 29.9975 17.3869 29.7045 20.025 28.5844C22.6631 27.4644 24.9179 25.5676 26.5043 23.134C28.0908 20.7004 28.9375 17.8393 28.9375 14.9125C28.9331 10.989 27.4106 7.2276 24.704 4.45332C21.9974 1.67904 18.3277 0.11849 14.5 0.114014ZM22.7418 24.3475C22.7212 22.961 22.1701 21.6383 21.2072 20.6644C20.2442 19.6904 18.9466 19.1432 17.5938 19.1406H11.4063C10.0534 19.1432 8.75578 19.6904 7.79285 20.6644C6.82992 21.6383 6.27881 22.961 6.25826 24.3475C4.38815 22.6359 3.06935 20.3825 2.47649 17.8855C1.88363 15.3886 2.04467 12.766 2.93829 10.365C3.83191 7.96392 5.41595 5.89774 7.48067 4.43998C9.54539 2.98223 11.9934 2.20168 14.5005 2.20168C17.0077 2.20168 19.4557 2.98223 21.5204 4.43998C23.5851 5.89774 25.1691 7.96392 26.0628 10.365C26.9564 12.766 27.1174 15.3886 26.5246 17.8855C25.9317 20.3825 24.6129 22.6359 22.7428 24.3475H22.7418Z" fill="#A7AFAF"/>
</svg>
