<svg width="32" height="32" viewBox="0 0 32 32" fill="none" xmlns="http://www.w3.org/2000/svg">
<path d="M5.33333 30.6666H1.33333V6.66665H30.6667V30.6666H21.3333M10.6667 6.66665V1.33331H21.3333V6.66665M18.6773 23.8346C19.5397 24.0551 20.4435 24.0562 21.3064 23.8379C22.1692 23.6195 22.9638 23.1887 23.6175 22.5847C24.2713 21.9807 24.7634 21.2226 25.0492 20.3797C25.3349 19.5367 25.4052 18.6356 25.2535 17.7586C25.1018 16.8815 24.733 16.0564 24.1808 15.3583C23.6285 14.6603 22.9103 14.1116 22.0917 13.7622C21.2731 13.4128 20.38 13.2739 19.4939 13.358C18.6078 13.4422 17.7569 13.7467 17.0187 14.244M10.2693 20.968C9.34138 21.6193 8.64513 22.5494 8.28162 23.6233C7.91811 24.6971 7.90626 25.8589 8.24778 26.9399C8.58931 28.021 9.26645 28.9651 10.1809 29.6352C11.0954 30.3054 12.1996 30.6666 13.3333 30.6666C14.5841 30.6678 15.7954 30.2293 16.7557 29.4279C17.7159 28.6265 18.3639 27.5131 18.5865 26.2823C18.809 25.0515 18.5919 23.7817 17.9732 22.6947C17.3544 21.6078 16.3733 20.7729 15.2013 20.336M12 21.3333C13.4145 21.3333 14.771 20.7714 15.7712 19.7712C16.7714 18.771 17.3333 17.4145 17.3333 16C17.3333 14.5855 16.7714 13.2289 15.7712 12.2287C14.771 11.2285 13.4145 10.6666 12 10.6666C10.5855 10.6666 9.22896 11.2285 8.22876 12.2287C7.22857 13.2289 6.66667 14.5855 6.66667 16C6.66667 17.4145 7.22857 18.771 8.22876 19.7712C9.22896 20.7714 10.5855 21.3333 12 21.3333V21.3333Z" stroke="#A7AFAF" stroke-width="3"/>
</svg>
