<svg width="21" height="21" viewBox="0 0 21 21" fill="none" xmlns="http://www.w3.org/2000/svg">
<path d="M10.7505 20.5C5.22749 20.5 0.750488 16.023 0.750488 10.5C0.750488 4.977 5.22749 0.5 10.7505 0.5C16.2735 0.5 20.7505 4.977 20.7505 10.5C20.7505 16.023 16.2735 20.5 10.7505 20.5ZM10.7505 18.5C12.8722 18.5 14.9071 17.6571 16.4073 16.1569C17.9076 14.6566 18.7505 12.6217 18.7505 10.5C18.7505 8.37827 17.9076 6.34344 16.4073 4.84315C14.9071 3.34285 12.8722 2.5 10.7505 2.5C8.62876 2.5 6.59392 3.34285 5.09363 4.84315C3.59334 6.34344 2.75049 8.37827 2.75049 10.5C2.75049 12.6217 3.59334 14.6566 5.09363 16.1569C6.59392 17.6571 8.62876 18.5 10.7505 18.5ZM10.7505 9.086L13.5785 6.257L14.9935 7.672L12.1645 10.5L14.9935 13.328L13.5785 14.743L10.7505 11.914L7.92249 14.743L6.50749 13.328L9.33649 10.5L6.50749 7.672L7.92249 6.257L10.7505 9.086Z" fill="#6125C2"/>
</svg>
