<svg width="33" height="28" viewBox="0 0 33 28" fill="none" xmlns="http://www.w3.org/2000/svg">
<path fill-rule="evenodd" clip-rule="evenodd" d="M7.14302 23.9498V13.6892H11.7591C13.7154 14.0393 15.6719 15.1013 17.6281 16.3323H21.2132C22.8362 16.4292 23.6864 18.0749 22.1083 19.1556C20.8519 20.0784 19.1929 20.0255 17.4922 19.8728C16.3194 19.8143 16.2695 21.3903 17.4922 21.3956C17.9178 21.429 18.3787 21.3292 18.7814 21.3292C20.9019 21.3259 22.6501 20.9206 23.7198 19.2445L24.2565 17.9913L29.5893 15.3485C32.2575 14.4703 34.1555 17.2605 32.188 19.2031C28.3249 22.0127 24.3644 24.3249 20.3131 26.1925C17.3702 27.9824 14.4267 27.921 11.4865 26.1925L7.14302 23.9498ZM24.852 7.76711C25.4018 7.76711 25.8419 7.92466 26.1773 8.23681C26.511 8.55057 26.6795 8.96687 26.6795 9.4873C26.6795 10.0059 26.511 10.4238 26.1773 10.7362C25.8419 11.0497 25.4018 11.2059 24.852 11.2059C24.3022 11.2059 23.86 11.0497 23.5251 10.7362C23.1914 10.4222 23.0245 10.0059 23.0245 9.4873C23.0245 8.96687 23.1914 8.55057 23.5251 8.23681C23.86 7.92466 24.3025 7.76711 24.852 7.76711ZM22.2965 0.375C26.5044 0.375 29.9156 3.78601 29.9156 7.99409C29.9156 12.2019 26.5044 15.6132 22.2965 15.6132C18.0887 15.6132 14.6775 12.2022 14.6775 7.99409C14.6775 3.78601 18.0887 0.375 22.2965 0.375ZM22.2965 1.81107C25.711 1.81107 28.4793 4.57934 28.4793 7.99409C28.4793 11.4088 25.711 14.1771 22.2965 14.1771C18.8815 14.1771 16.1135 11.4091 16.1135 7.99435C16.1135 4.57961 18.8815 1.81107 22.2965 1.81107ZM23.7302 5.03195H25.2176L20.8618 10.9562H19.3745L23.7302 5.03195ZM24.852 8.95699C24.6912 8.95699 24.5679 9.00452 24.4827 9.09504C24.3983 9.18983 24.3548 9.31774 24.3548 9.48917C24.3548 9.6582 24.3981 9.78797 24.4827 9.8809C24.5676 9.97382 24.6912 10.0192 24.852 10.0192C25.0111 10.0192 25.1348 9.97196 25.2197 9.8809C25.3041 9.78797 25.3476 9.6582 25.3476 9.48917C25.3476 9.31774 25.3038 9.18796 25.2197 9.09504C25.1369 9.00238 25.0133 8.95699 24.852 8.95699ZM19.7205 5.97696C19.5593 5.97696 19.4372 6.02423 19.3528 6.11528C19.2685 6.20794 19.2249 6.33798 19.2249 6.50701C19.2249 6.67631 19.2682 6.80822 19.3528 6.90088C19.4372 6.99167 19.5593 7.0392 19.7205 7.0392C19.8813 7.0392 20.0047 6.99167 20.0893 6.90088C20.1737 6.80608 20.2151 6.67631 20.2151 6.50701C20.2151 6.33798 20.1739 6.20794 20.0893 6.11528C20.0071 6.02423 19.8834 5.97696 19.7205 5.97696ZM19.72 4.78682C20.2698 4.78682 20.712 4.94277 21.0474 5.25679C21.3806 5.57055 21.5475 5.98684 21.5475 6.50568C21.5475 7.02611 21.3806 7.44241 21.0474 7.75616C20.712 8.06992 20.2698 8.22586 19.72 8.22586C19.1707 8.22586 18.7301 8.06832 18.3947 7.75616C18.061 7.44241 17.8925 7.02611 17.8925 6.50568C17.8925 5.98711 18.061 5.56921 18.3947 5.25679C18.7301 4.94303 19.171 4.78682 19.72 4.78682ZM0.1875 12.7028H5.75341V24.9808H0.1875V12.7028Z" fill="#A7AFAF"/>
</svg>
