<svg width="30" height="24" viewBox="0 0 30 24" fill="none" xmlns="http://www.w3.org/2000/svg">
<path d="M24.4987 14.9747V10.7323H20.2563V7.90404H24.4987V3.66161H27.327V7.90404H31.5694V10.7323H27.327V14.9747H24.4987ZM11.7714 12.1465C10.2159 12.1465 8.88424 11.5926 7.77649 10.4848C6.66875 9.3771 6.11488 8.04545 6.11488 6.48989C6.11488 4.93434 6.66875 3.60269 7.77649 2.49494C8.88424 1.3872 10.2159 0.833328 11.7714 0.833328C13.327 0.833328 14.6586 1.3872 15.7664 2.49494C16.8741 3.60269 17.428 4.93434 17.428 6.48989C17.428 8.04545 16.8741 9.3771 15.7664 10.4848C14.6586 11.5926 13.327 12.1465 11.7714 12.1465ZM0.458313 23.4596V19.5C0.458313 18.6987 0.664778 17.9619 1.07771 17.2897C1.48969 16.6184 2.03744 16.1061 2.72094 15.7525C4.18222 15.0219 5.66707 14.4737 7.17548 14.1079C8.6839 13.743 10.2159 13.5606 11.7714 13.5606C13.327 13.5606 14.859 13.743 16.3674 14.1079C17.8758 14.4737 19.3607 15.0219 20.8219 15.7525C21.5055 16.1061 22.0532 16.6184 22.4652 17.2897C22.8781 17.9619 23.0846 18.6987 23.0846 19.5V23.4596H0.458313ZM3.2866 20.6313H20.2563V19.5C20.2563 19.2407 20.1917 19.005 20.0626 18.7929C19.9325 18.5808 19.7613 18.4158 19.5492 18.298C18.2765 17.6616 16.992 17.1841 15.6957 16.8654C14.3994 16.5477 13.0913 16.3889 11.7714 16.3889C10.4516 16.3889 9.1435 16.5477 7.8472 16.8654C6.55091 17.1841 5.26639 17.6616 3.99367 18.298C3.78155 18.4158 3.61091 18.5808 3.48175 18.7929C3.35165 19.005 3.2866 19.2407 3.2866 19.5V20.6313ZM11.7714 9.31818C12.5492 9.31818 13.2153 9.04101 13.7696 8.48666C14.323 7.93326 14.5997 7.26767 14.5997 6.48989C14.5997 5.71212 14.323 5.04653 13.7696 4.49313C13.2153 3.93878 12.5492 3.66161 11.7714 3.66161C10.9937 3.66161 10.3281 3.93878 9.77468 4.49313C9.22033 5.04653 8.94316 5.71212 8.94316 6.48989C8.94316 7.26767 9.22033 7.93326 9.77468 8.48666C10.3281 9.04101 10.9937 9.31818 11.7714 9.31818Z" fill="#A7AFAF"/>
</svg>
