<svg width="23" height="17" viewBox="0 0 23 17" fill="none" xmlns="http://www.w3.org/2000/svg">
<path d="M17.2133 10.2677V7.23738H14.183V5.21718H17.2133V2.18687H19.2335V5.21718H22.2638V7.23738H19.2335V10.2677H17.2133ZM8.12243 8.24748C7.01132 8.24748 6.06014 7.85186 5.2689 7.06061C4.47765 6.26937 4.08203 5.31819 4.08203 4.20708C4.08203 3.09596 4.47765 2.14479 5.2689 1.35354C6.06014 0.562295 7.01132 0.166672 8.12243 0.166672C9.23354 0.166672 10.1847 0.562295 10.976 1.35354C11.7672 2.14479 12.1628 3.09596 12.1628 4.20708C12.1628 5.31819 11.7672 6.26937 10.976 7.06061C10.1847 7.85186 9.23354 8.24748 8.12243 8.24748ZM0.041626 16.3283V13.5C0.041626 12.9276 0.189101 12.4014 0.48405 11.9212C0.778326 11.4418 1.16957 11.0758 1.65779 10.8232C2.70156 10.3014 3.76216 9.90977 4.83961 9.64849C5.91705 9.38788 7.01132 9.25758 8.12243 9.25758C9.23354 9.25758 10.3278 9.38788 11.4053 9.64849C12.4827 9.90977 13.5433 10.3014 14.5871 10.8232C15.0753 11.0758 15.4665 11.4418 15.7608 11.9212C16.0558 12.4014 16.2032 12.9276 16.2032 13.5V16.3283H0.041626ZM2.06183 14.3081H14.183V13.5C14.183 13.3148 14.1369 13.1465 14.0447 12.995C13.9517 12.8434 13.8295 12.7256 13.678 12.6414C12.7689 12.1869 11.8514 11.8458 10.9255 11.6182C9.99954 11.3913 9.06519 11.2778 8.12243 11.2778C7.17967 11.2778 6.24533 11.3913 5.3194 11.6182C4.39348 11.8458 3.47597 12.1869 2.56688 12.6414C2.41536 12.7256 2.29348 12.8434 2.20122 12.995C2.10829 13.1465 2.06183 13.3148 2.06183 13.5V14.3081ZM8.12243 6.22728C8.67799 6.22728 9.15375 6.0293 9.54971 5.63334C9.94499 5.23805 10.1426 4.76263 10.1426 4.20708C10.1426 3.65152 9.94499 3.1761 9.54971 2.78081C9.15375 2.38485 8.67799 2.18687 8.12243 2.18687C7.56688 2.18687 7.09146 2.38485 6.69617 2.78081C6.30021 3.1761 6.10223 3.65152 6.10223 4.20708C6.10223 4.76263 6.30021 5.23805 6.69617 5.63334C7.09146 6.0293 7.56688 6.22728 8.12243 6.22728Z" fill="white"/>
</svg>
