<svg width="26" height="26" viewBox="0 0 26 26" fill="none" xmlns="http://www.w3.org/2000/svg">
<path d="M6.41699 3C6.41699 2.33696 6.68038 1.70107 7.14923 1.23223C7.61807 0.763392 8.25395 0.5 8.91699 0.5H16.417C17.08 0.5 17.7159 0.763392 18.1848 1.23223C18.6536 1.70107 18.917 2.33696 18.917 3V5.5H23.917C24.2485 5.5 24.5665 5.6317 24.8009 5.86612C25.0353 6.10054 25.167 6.41848 25.167 6.75C25.167 7.08152 25.0353 7.39946 24.8009 7.63388C24.5665 7.8683 24.2485 8 23.917 8H22.5807L21.497 23.1775C21.4521 23.8082 21.1699 24.3985 20.7071 24.8295C20.2444 25.2604 19.6356 25.5 19.0032 25.5H6.32949C5.69717 25.5 5.08833 25.2604 4.6256 24.8295C4.16287 24.3985 3.88064 23.8082 3.83574 23.1775L2.75449 8H1.41699C1.08547 8 0.767529 7.8683 0.533109 7.63388C0.298688 7.39946 0.166992 7.08152 0.166992 6.75C0.166992 6.41848 0.298688 6.10054 0.533109 5.86612C0.767529 5.6317 1.08547 5.5 1.41699 5.5H6.41699V3ZM8.91699 5.5H16.417V3H8.91699V5.5ZM5.25949 8L6.33074 23H19.0045L20.0757 8H5.25949ZM10.167 10.5C10.4985 10.5 10.8165 10.6317 11.0509 10.8661C11.2853 11.1005 11.417 11.4185 11.417 11.75V19.25C11.417 19.5815 11.2853 19.8995 11.0509 20.1339C10.8165 20.3683 10.4985 20.5 10.167 20.5C9.83547 20.5 9.51753 20.3683 9.28311 20.1339C9.04869 19.8995 8.91699 19.5815 8.91699 19.25V11.75C8.91699 11.4185 9.04869 11.1005 9.28311 10.8661C9.51753 10.6317 9.83547 10.5 10.167 10.5ZM15.167 10.5C15.4985 10.5 15.8165 10.6317 16.0509 10.8661C16.2853 11.1005 16.417 11.4185 16.417 11.75V19.25C16.417 19.5815 16.2853 19.8995 16.0509 20.1339C15.8165 20.3683 15.4985 20.5 15.167 20.5C14.8355 20.5 14.5175 20.3683 14.2831 20.1339C14.0487 19.8995 13.917 19.5815 13.917 19.25V11.75C13.917 11.4185 14.0487 11.1005 14.2831 10.8661C14.5175 10.6317 14.8355 10.5 15.167 10.5Z" fill="#6125C2"/>
</svg>
