<svg width="27" height="27" viewBox="0 0 27 27" fill="none" xmlns="http://www.w3.org/2000/svg">
<path d="M20.0606 0.802285C20.3341 0.52889 20.705 0.375305 21.0917 0.375305C21.4784 0.375305 21.8492 0.52889 22.1227 0.802285L26.4977 5.17729C26.7711 5.45076 26.9247 5.82163 26.9247 6.20833C26.9247 6.59503 26.7711 6.96589 26.4977 7.23937L13.3727 20.3644C13.0993 20.6379 12.7284 20.7916 12.3417 20.7917H7.96665C7.57988 20.7917 7.20895 20.638 6.93546 20.3645C6.66197 20.091 6.50832 19.7201 6.50832 19.3333V14.9583C6.5084 14.5716 6.6621 14.2007 6.93561 13.9273L20.0606 0.802285ZM9.42499 15.5621V17.875H11.7379L23.4046 6.20833L21.0917 3.89541L9.42499 15.5621ZM0.674988 6.20833C0.674988 5.43478 0.982278 4.69291 1.52926 4.14593C2.07624 3.59895 2.81811 3.29166 3.59165 3.29166H10.8833C11.2701 3.29166 11.641 3.44531 11.9145 3.7188C12.188 3.99229 12.3417 4.36322 12.3417 4.74999C12.3417 5.13677 12.188 5.5077 11.9145 5.78119C11.641 6.05468 11.2701 6.20833 10.8833 6.20833H3.59165V23.7083H21.0917V16.4167C21.0917 16.0299 21.2453 15.659 21.5188 15.3855C21.7923 15.112 22.1632 14.9583 22.55 14.9583C22.9368 14.9583 23.3077 15.112 23.5812 15.3855C23.8547 15.659 24.0083 16.0299 24.0083 16.4167V23.7083C24.0083 24.4819 23.701 25.2237 23.154 25.7707C22.6071 26.3177 21.8652 26.625 21.0917 26.625H3.59165C2.81811 26.625 2.07624 26.3177 1.52926 25.7707C0.982278 25.2237 0.674988 24.4819 0.674988 23.7083V6.20833Z" fill="#6125C2"/>
</svg>
