<svg width="31" height="28" viewBox="0 0 31 28" fill="none" xmlns="http://www.w3.org/2000/svg">
<path d="M16.9582 22.7083C16.9582 17.8812 20.8811 13.9583 25.7082 13.9583C27.3123 13.9583 28.7998 14.3958 30.0832 15.1396V3.74998C30.0832 2.97643 29.7759 2.23457 29.2289 1.68758C28.6819 1.1406 27.9401 0.833313 27.1665 0.833313H3.83317C2.21442 0.833313 0.916504 2.13123 0.916504 3.74998V21.25C0.916504 22.0235 1.22379 22.7654 1.77078 23.3124C2.31776 23.8594 3.05962 24.1666 3.83317 24.1666H17.0894C17.0165 23.6854 16.9582 23.2041 16.9582 22.7083ZM3.83317 6.66665V3.74998L15.4998 11.0416L27.1665 3.74998V6.66665L15.4998 13.9583L3.83317 6.66665ZM24.2498 18.3333V21.25H30.0832V24.1666H24.2498V27.0833L19.8748 22.7083L24.2498 18.3333Z" fill="#A7AFAF"/>
</svg>
