<svg width="40" height="40" viewBox="0 0 40 40" fill="none" xmlns="http://www.w3.org/2000/svg">
<path fill-rule="evenodd" clip-rule="evenodd" d="M8 16V9.33333C8 8.10766 8.24141 6.89399 8.71046 5.76162C9.1795 4.62925 9.86699 3.60035 10.7337 2.73367C11.6004 1.86699 12.6292 1.1795 13.7616 0.710458C14.894 0.241414 16.1077 0 17.3333 0C18.559 0 19.7727 0.241414 20.905 0.710458C22.0374 1.1795 23.0663 1.86699 23.933 2.73367C24.7997 3.60035 25.4872 4.62925 25.9562 5.76162C26.4253 6.89399 26.6667 8.10766 26.6667 9.33333V16H30.6667C31.7275 16 32.7449 16.4214 33.4951 17.1716C34.2452 17.9217 34.6667 18.9391 34.6667 20V21.4667C36.1737 21.7727 37.5286 22.5903 38.5018 23.781C39.475 24.9717 40.0067 26.4622 40.0067 28C40.0067 29.5378 39.475 31.0283 38.5018 32.219C37.5286 33.4097 36.1737 34.2273 34.6667 34.5333V36C34.6667 37.0609 34.2452 38.0783 33.4951 38.8284C32.7449 39.5786 31.7275 40 30.6667 40H4C2.93913 40 1.92172 39.5786 1.17157 38.8284C0.421427 38.0783 0 37.0609 0 36L0 20C0 18.9391 0.421427 17.9217 1.17157 17.1716C1.92172 16.4214 2.93913 16 4 16H8ZM10.6667 9.33333C10.6667 7.56522 11.369 5.86953 12.6193 4.61929C13.8695 3.36905 15.5652 2.66667 17.3333 2.66667C19.1014 2.66667 20.7971 3.36905 22.0474 4.61929C23.2976 5.86953 24 7.56522 24 9.33333V16H10.6667V9.33333ZM22.6667 24C21.6058 24 20.5884 24.4214 19.8382 25.1716C19.0881 25.9217 18.6667 26.9391 18.6667 28C18.6667 29.0609 19.0881 30.0783 19.8382 30.8284C20.5884 31.5786 21.6058 32 22.6667 32H33.3333C34.3942 32 35.4116 31.5786 36.1618 30.8284C36.9119 30.0783 37.3333 29.0609 37.3333 28C37.3333 26.9391 36.9119 25.9217 36.1618 25.1716C35.4116 24.4214 34.3942 24 33.3333 24H22.6667Z" fill="#6125C2"/>
</svg>
