<svg width="35" height="29" viewBox="0 0 35 29" fill="none" xmlns="http://www.w3.org/2000/svg">
<path d="M30.2579 18.8953C30.0891 17.7225 29.1836 16.8082 28.0179 16.5357C23.4869 15.4737 22.351 12.8645 22.1594 9.97037C21.3559 9.82092 19.9264 9.65916 17.5 9.65916C15.0736 9.65916 13.6441 9.82092 12.8406 9.97037C12.649 12.8645 11.5131 15.4737 6.9821 16.5357C5.81638 16.81 4.91087 17.7225 4.74208 18.8953L3.86823 24.9472C3.56053 27.0782 5.12538 29 7.30211 29H27.6979C29.8729 29 31.4395 27.0782 31.1318 24.9472L30.2579 18.8953ZM17.5 24.5903C15.0472 24.5903 13.0586 22.621 13.0586 20.1946C13.0586 17.7682 15.0472 15.799 17.5 15.799C19.9528 15.799 21.9414 17.7682 21.9414 20.1946C21.9414 22.621 19.951 24.5903 17.5 24.5903ZM34.9947 7.9009C34.9525 5.26351 28.2395 0.869617 17.5 0.867859C6.7588 0.869617 0.0457703 5.26351 0.00533032 7.9009C-0.0351097 10.5383 0.0422539 13.9704 4.46252 13.399C9.63356 12.7291 9.31531 10.9233 9.31531 8.34222C9.31531 6.54176 13.5211 6.10747 17.5 6.10747C21.479 6.10747 25.683 6.54176 25.6847 8.34222C25.6847 10.9233 25.3665 12.7291 30.5375 13.399C34.956 13.9704 35.0351 10.5383 34.9947 7.9009Z" fill="#A7AFAF"/>
</svg>
