<svg width="36" height="28" viewBox="0 0 36 28" fill="none" xmlns="http://www.w3.org/2000/svg">
<path d="M32 0H4C2.0575 0 0.5175 1.5575 0.5175 3.5L0.5 24.5C0.5 26.4425 2.0575 28 4 28H32C33.9425 28 35.5 26.4425 35.5 24.5V3.5C35.5 1.5575 33.9425 0 32 0ZM16.25 10.5H11V12.25H16.25C17.2125 12.25 18 13.0375 18 14V19.25C18 20.2125 17.2125 21 16.25 21H14.5C14.5 21.9625 13.7125 22.75 12.75 22.75C11.7875 22.75 11 21.9625 11 21H9.25C8.2875 21 7.5 20.2125 7.5 19.25C7.5 18.2875 8.2875 17.5 9.25 17.5H14.5V15.75H9.25C8.2875 15.75 7.5 14.9625 7.5 14V8.75C7.5 7.7875 8.2875 7 9.25 7H11C11 6.0375 11.7875 5.25 12.75 5.25C13.7125 5.25 14.5 6.0375 14.5 7H16.25C17.2125 7 18 7.7875 18 8.75C18 9.7125 17.2125 10.5 16.25 10.5ZM24.3875 20.825L21.5 17.9375H28.5L25.6125 20.825C25.28 21.1575 24.72 21.1575 24.3875 20.825ZM21.5 10.5L24.3875 7.6125C24.7375 7.2625 25.28 7.2625 25.63 7.6125L28.5 10.5H21.5Z" fill="#A7AFAF"/>
</svg>
