<svg width="25" height="25" viewBox="0 0 25 25" fill="none" xmlns="http://www.w3.org/2000/svg">
<path d="M16.4062 0.0244141L25 4.32129V13.9038L23.4375 13.1226V6.06689L17.1875 9.19189V12.3413L15.625 13.1226V9.19189L9.375 6.06689V8.83789L7.8125 8.05664V4.32129L16.4062 0.0244141ZM16.4062 7.83691L18.5669 6.75049L12.915 3.51562L10.3394 4.80957L16.4062 7.83691ZM20.2515 5.92041L22.4731 4.80957L16.4062 1.77002L14.5874 2.68555L20.2515 5.92041ZM14.0625 13.9038L12.5 14.6851V14.6729L7.8125 17.0166V22.5708L12.5 20.2148V21.9727L7.03125 24.707L0 21.1792V12.9272L7.03125 9.41162L14.0625 12.9272V13.9038ZM6.25 22.5708V17.0166L1.5625 14.6729V20.2148L6.25 22.5708ZM7.03125 15.6616L11.5356 13.4155L7.03125 11.1572L2.52686 13.4155L7.03125 15.6616ZM14.0625 15.6494L19.5312 12.915L25 15.6494V22.0825L19.5312 24.8169L14.0625 22.0825V15.6494ZM18.75 22.6807V18.9575L15.625 17.395V21.1182L18.75 22.6807ZM23.4375 21.1182V17.395L20.3125 18.9575V22.6807L23.4375 21.1182ZM19.5312 17.6025L22.4731 16.1255L19.5312 14.6606L16.5894 16.1255L19.5312 17.6025Z" fill="white"/>
</svg>
