<svg width="37" height="35" viewBox="0 0 37 35" fill="none" xmlns="http://www.w3.org/2000/svg">
<path d="M10.201 22.6274C8.01369 19.737 7.034 16.1535 7.45796 12.5937C7.88192 9.03387 9.67826 5.76034 12.4876 3.42801C15.2969 1.09568 18.912 -0.123453 22.6097 0.01452C26.3074 0.152492 29.8149 1.63739 32.4306 4.17215C35.0463 6.70691 36.5771 10.1046 36.717 13.6854C36.8568 17.2663 35.5953 20.7662 33.1848 23.485C30.7743 26.2038 27.3925 27.941 23.7162 28.349C20.0398 28.757 16.3399 27.8058 13.3567 25.6855H13.359C13.2912 25.773 13.2189 25.8562 13.1376 25.9371L4.44071 34.359C4.01714 34.7694 3.44254 35.0002 2.84331 35.0004C2.24408 35.0006 1.66931 34.7702 1.24545 34.3601C0.821575 33.9499 0.583328 33.3935 0.583115 32.8132C0.582905 32.2329 0.820747 31.6763 1.24432 31.2659L9.94123 22.844C10.022 22.7648 10.1088 22.6917 10.201 22.6252V22.6274ZM9.6182 14.2187C9.6182 15.7986 9.93956 17.3631 10.5639 18.8228C11.1883 20.2825 12.1035 21.6088 13.2571 22.726C14.4108 23.8432 15.7805 24.7295 17.2878 25.3341C18.7952 25.9387 20.4108 26.2499 22.0424 26.2499C23.6739 26.2499 25.2895 25.9387 26.7969 25.3341C28.3042 24.7295 29.6739 23.8432 30.8276 22.726C31.9813 21.6088 32.8964 20.2825 33.5208 18.8228C34.1452 17.3631 34.4665 15.7986 34.4665 14.2187C34.4665 11.0278 33.1575 7.96758 30.8276 5.71129C28.4976 3.45499 25.3374 2.18741 22.0424 2.18741C18.7473 2.18741 15.5871 3.45499 13.2571 5.71129C10.9272 7.96758 9.6182 11.0278 9.6182 14.2187Z" fill="black"/>
</svg>
