<svg width="54" height="14" viewBox="0 0 54 14" fill="none" xmlns="http://www.w3.org/2000/svg">
<path fill-rule="evenodd" clip-rule="evenodd" d="M7.00004 0.333328C3.33337 0.333328 0.333374 3.33333 0.333374 7C0.333374 10.6667 3.33337 13.6667 7.00004 13.6667C10.6667 13.6667 13.6667 10.6667 13.6667 7C13.6667 3.33333 10.6667 0.333328 7.00004 0.333328ZM47 0.333328C43.3334 0.333328 40.3334 3.33333 40.3334 7C40.3334 10.6667 43.3334 13.6667 47 13.6667C50.6667 13.6667 53.6667 10.6667 53.6667 7C53.6667 3.33333 50.6667 0.333328 47 0.333328ZM27 0.333328C23.3334 0.333328 20.3334 3.33333 20.3334 7C20.3334 10.6667 23.3334 13.6667 27 13.6667C30.6667 13.6667 33.6667 10.6667 33.6667 7C33.6667 3.33333 30.6667 0.333328 27 0.333328Z" fill="white" fill-opacity="0.5"/>
</svg>
