<svg width="25" height="25" viewBox="0 0 25 25" fill="none" xmlns="http://www.w3.org/2000/svg">
<path d="M6.66732 12.5L11.6673 16.6667L18.334 8.33333M12.5007 24.1667C10.9686 24.1667 9.45148 23.8649 8.03601 23.2786C6.62055 22.6923 5.33442 21.8329 4.25107 20.7496C3.16772 19.6662 2.30836 18.3801 1.72206 16.9646C1.13575 15.5492 0.833984 14.0321 0.833984 12.5C0.833984 10.9679 1.13575 9.45082 1.72206 8.03536C2.30836 6.61989 3.16772 5.33377 4.25107 4.25042C5.33442 3.16707 6.62055 2.30771 8.03601 1.7214C9.45148 1.1351 10.9686 0.833328 12.5007 0.833328C15.5948 0.833328 18.5623 2.06249 20.7502 4.25042C22.9382 6.43834 24.1673 9.4058 24.1673 12.5C24.1673 15.5942 22.9382 18.5616 20.7502 20.7496C18.5623 22.9375 15.5948 24.1667 12.5007 24.1667Z" stroke="#6125C2"/>
</svg>
