<svg width="29" height="27" viewBox="0 0 29 27" fill="none" xmlns="http://www.w3.org/2000/svg">
<path d="M2.80013 26.25C2.80013 26.25 0.466797 26.25 0.466797 24.0625C0.466797 21.875 2.80013 15.3125 14.4668 15.3125C26.1335 15.3125 28.4668 21.875 28.4668 24.0625C28.4668 26.25 26.1335 26.25 26.1335 26.25H2.80013ZM14.4668 13.125C16.3233 13.125 18.1038 12.4336 19.4165 11.2029C20.7293 9.97218 21.4668 8.30298 21.4668 6.5625C21.4668 4.82202 20.7293 3.15282 19.4165 1.92211C18.1038 0.691404 16.3233 0 14.4668 0C12.6103 0 10.8298 0.691404 9.51705 1.92211C8.20429 3.15282 7.4668 4.82202 7.4668 6.5625C7.4668 8.30298 8.20429 9.97218 9.51705 11.2029C10.8298 12.4336 12.6103 13.125 14.4668 13.125V13.125Z" fill="white"/>
</svg>
